<svg viewBox="0 0 400 332" fill="none" xmlns="http://www.w3.org/2000/svg">
<g clip-path="url(#clip0_46_117)">
<path d="M306.39 133.376C305.532 131.595 304.605 129.835 303.605 128.106L287.365 99.9813C273.206 75.4565 247.044 60.3519 218.725 60.3519H186.248C157.933 60.3519 131.767 75.4599 117.608 99.9813L101.368 128.106C100.483 129.64 99.6533 131.194 98.8796 132.769" stroke="#F3F0EB" stroke-width="10" stroke-miterlimit="10"/>
<path d="M253.355 68.3154C258.126 59.7211 263.388 56.7274 267.647 55.9816C273.697 54.9186 279.284 51.9841 283.291 47.3315C303.044 24.4133 330.109 22.4826 343.812 21.3429C346.251 21.1373 348.607 20.3601 350.694 19.0776L370.653 6.79252C380.254 0.885236 392.922 6.23839 395.166 17.2862C397.616 29.3587 391.263 62.5266 361.041 103.271" stroke="#F3F0EB" stroke-width="10" stroke-miterlimit="10"/>
<path d="M345.728 122.126C341.822 126.545 337.64 131.023 333.158 135.543" stroke="#F3F0EB" stroke-width="10" stroke-miterlimit="10"/>
<path d="M353.27 128.608L336.626 114.305C336.037 113.8 335.97 112.911 336.476 112.322L350.464 96.0396C350.97 95.4506 351.858 95.3844 352.447 95.8897L369.012 110.123C369.914 110.897 369.506 112.374 368.335 112.577L357.333 114.483C356.685 114.594 356.201 115.142 356.169 115.8L355.594 127.611C355.539 128.782 354.158 129.375 353.27 128.612V128.608Z" stroke="#F77F00" stroke-width="10" stroke-miterlimit="10"/>
<path d="M281.423 91.1221C281.423 91.1221 304.609 52.2525 341.302 39.7061" stroke="#F3F0EB" stroke-width="10" stroke-miterlimit="10" stroke-linecap="round"/>
<path d="M380.195 190.535L366.056 227.614C359.776 244.077 345.212 255.958 327.822 258.795L302.372 262.949C273.188 267.71 244.657 251.4 233.951 223.836L218.781 184.774C210.765 164.132 223.827 141.357 245.688 137.851L250.215 137.126C283.385 131.807 317.186 132.149 350.186 138.109C358.982 139.698 367.924 140.357 376.86 140.123C385.318 139.9 392.295 146.696 392.295 155.158V175.504C392.295 181.638 388.569 187.158 382.882 189.451L380.198 190.532L380.195 190.535Z" stroke="#F3F0EB" stroke-width="10" stroke-miterlimit="10" stroke-linecap="round"/>
<path d="M365.973 192.041L354.483 222.166C349.381 235.542 337.546 245.196 323.417 247.5L302.737 250.873C279.026 254.742 255.843 241.491 247.148 219.096L234.825 187.36C228.312 170.59 238.924 152.084 256.687 149.237L260.363 148.648C287.313 144.326 314.799 144.479 341.588 149.446C364.805 153.75 377.459 161.915 365.973 192.041Z" stroke="#F3F0EB" stroke-width="10" stroke-miterlimit="10" stroke-linecap="round"/>
<path d="M24.7818 190.535L38.9204 227.614C45.2003 244.077 59.7641 255.958 77.1542 258.795L102.605 262.949C131.788 267.71 160.32 251.4 171.026 223.836L186.196 184.774C194.211 164.132 181.15 141.357 159.288 137.851L154.761 137.126C121.591 131.807 87.7904 132.149 54.791 138.109C45.9949 139.698 37.0524 140.357 28.1169 140.123C19.6588 139.9 12.6819 146.696 12.6819 155.158V175.504C12.6819 181.638 16.4073 187.158 22.0948 189.451L24.7783 190.532L24.7818 190.535Z" stroke="#F3F0EB" stroke-width="10" stroke-miterlimit="10" stroke-linecap="round"/>
<path d="M39.0075 192.041L50.4975 222.166C55.5995 235.542 67.4345 245.196 81.5626 247.5L102.243 250.873C125.954 254.742 149.137 241.491 157.832 219.096L170.155 187.36C176.668 170.59 166.056 152.084 148.293 149.237L144.617 148.648C117.667 144.326 90.181 144.479 63.3919 149.446C40.1749 153.75 27.5209 161.915 39.0075 192.041Z" stroke="#F3F0EB" stroke-width="10" stroke-miterlimit="10" stroke-linecap="round"/>
<path d="M151.35 68.4478L140.626 58.2155C131.764 49.7571 117.702 50.1474 109.324 59.0868C106.16 62.4639 101.633 64.2657 97.0186 63.8893C85.5251 62.9518 57.7463 67.6915 7.78548 114.612C1.81918 120.216 3.47804 130.128 10.9603 133.442C18.4426 136.756 28.5247 139.945 39.2724 139.945" stroke="#F3F0EB" stroke-width="10" stroke-miterlimit="10"/>
<path d="M50.8146 105.519C50.8146 105.519 82.3817 75.568 125.975 88.1423" stroke="#F3F0EB" stroke-width="10" stroke-miterlimit="10" stroke-linecap="round"/>
<path d="M186.199 184.774C189.472 176.818 194.069 168.67 202.488 168.67C210.908 168.67 215.944 176.891 218.777 184.774" stroke="#F3F0EB" stroke-width="10" stroke-miterlimit="10" stroke-linecap="round"/>
<path d="M159.295 137.84C170.74 140.078 185.882 141.437 202.492 141.437C219.101 141.437 234.244 140.074 245.688 137.84" stroke="#F3F0EB" stroke-width="10" stroke-miterlimit="10" stroke-linecap="round"/>
<path d="M102.612 262.949V291.458C102.612 304.652 110.593 316.882 123.637 323.667C140.455 332.418 168.189 327.062 170.196 304.297" stroke="#F3F0EB" stroke-width="10" stroke-miterlimit="10" stroke-linecap="round"/>
<path d="M302.368 262.949V291.458C302.368 304.652 294.387 316.882 281.343 323.667C264.525 332.418 236.791 327.062 234.784 304.297" stroke="#F3F0EB" stroke-width="10" stroke-miterlimit="10" stroke-linecap="round"/>
<path d="M234.784 304.297C233.086 290.13 229.901 283.947 224.357 283.654C221.339 283.494 218.693 285.547 217.24 288.373C217.202 288.443 217.104 288.443 217.069 288.373C215.62 285.547 212.63 283.654 209.605 283.654C206.58 283.654 203.942 285.547 202.488 288.373C202.45 288.443 202.352 288.443 202.318 288.373C200.868 285.547 198.226 283.654 195.201 283.654C191.964 283.654 189.162 285.826 187.796 288.99C187.761 289.074 187.642 289.07 187.614 288.983L183.429 276.59C181.93 272.15 175.49 272.666 174.716 277.287L170.196 304.293" stroke="#F3F0EB" stroke-width="10" stroke-miterlimit="10" stroke-linecap="round"/>
<path d="M202.488 254.592V288.377" stroke="#F3F0EB" stroke-width="10" stroke-miterlimit="10" stroke-linecap="round"/>
<path d="M228.249 301.554H176.731C173.122 301.554 170.196 304.48 170.196 308.089V308.092C170.196 311.701 173.122 314.627 176.731 314.627H228.249C231.858 314.627 234.784 311.701 234.784 308.092V308.089C234.784 304.48 231.858 301.554 228.249 301.554Z" stroke="#F3F0EB" stroke-width="10" stroke-miterlimit="10" stroke-linecap="round"/>
<path d="M293.44 314.623C299.486 306.409 297.325 287.387 278.168 274.976C259.011 262.566 250.055 255.317 240.666 237.877C238.708 234.242 236.62 230.998 234.47 228.105C218.624 206.811 186.649 206.811 170.803 228.105C168.649 230.998 166.562 234.242 164.606 237.877C155.218 255.317 146.258 262.566 127.105 274.976C107.948 287.387 105.79 306.409 111.833 314.623" stroke="#F3F0EB" stroke-width="10" stroke-miterlimit="10" stroke-linecap="round"/>
<path d="M223.06 256.376L212.239 267.198C206.935 272.502 198.334 272.502 193.03 267.198L182.174 256.341C174.762 248.929 178.184 236.271 188.322 233.601C197.616 231.154 207.381 231.147 216.679 233.577L216.888 233.632C227.04 236.285 230.48 248.96 223.06 256.38V256.376Z" stroke="#F3F0EB" stroke-width="10" stroke-miterlimit="10" stroke-linecap="round"/>
<path d="M183.551 257.715C183.551 257.715 194.058 256.739 190.821 246.799" stroke="#F3F0EB" stroke-width="10" stroke-miterlimit="10" stroke-linecap="round"/>
<path d="M221.914 257.715C221.914 257.715 211.406 256.739 214.644 246.799" stroke="#F3F0EB" stroke-width="10" stroke-miterlimit="10" stroke-linecap="round"/>
</g>
<defs>
<clipPath id="clip0_46_117">
<rect width="400" height="332" fill="white"/>
</clipPath>
</defs>
</svg>
